<?xml version="1.0" encoding="UTF-8" standalone="no"?>
<svg
   xmlns:dc="http://purl.org/dc/elements/1.1/"
   xmlns:cc="http://creativecommons.org/ns#"
   xmlns:rdf="http://www.w3.org/1999/02/22-rdf-syntax-ns#"
   xmlns:svg="http://www.w3.org/2000/svg"
   xmlns="http://www.w3.org/2000/svg"
   xmlns:xlink="http://www.w3.org/1999/xlink"
   xmlns:sodipodi="http://sodipodi.sourceforge.net/DTD/sodipodi-0.dtd"
   xmlns:inkscape="http://www.inkscape.org/namespaces/inkscape"
   version="1.1"
   preserveAspectRatio="xMidYMid meet"
   viewBox="0 0 100 100"
   width="100"
   height="100"
   id="svg233"
   sodipodi:docname="1x1_1x3_little_far_apart.svg"
   inkscape:version="1.0.1 (3bc2e813f5, 2020-09-07)">
  <metadata
     id="metadata237">
    <rdf:RDF>
      <cc:Work
         rdf:about="">
        <dc:format>image/svg+xml</dc:format>
        <dc:type
           rdf:resource="http://purl.org/dc/dcmitype/StillImage" />
      </cc:Work>
    </rdf:RDF>
  </metadata>
  <sodipodi:namedview
     pagecolor="#ffffff"
     bordercolor="#666666"
     borderopacity="1"
     objecttolerance="10"
     gridtolerance="10"
     guidetolerance="10"
     inkscape:pageopacity="0"
     inkscape:pageshadow="2"
     inkscape:window-width="1920"
     inkscape:window-height="1001"
     id="namedview235"
     showgrid="false"
     inkscape:zoom="8.3"
     inkscape:cx="50"
     inkscape:cy="40.361446"
     inkscape:window-x="-9"
     inkscape:window-y="-9"
     inkscape:window-maximized="1"
     inkscape:current-layer="svg233"
     inkscape:document-rotation="0" />
  <defs
     id="defs27">
    <path
       d="M75.5 100L75.5 88L87.5 88L87.5 100L75.5 100ZM88 100L88 88L100 88L100 100L88 100ZM25.56 100L25.56 88L37.56 88L37.56 100L25.56 100ZM38.06 100L38.06 88L50.06 88L50.06 100L38.06 100ZM0.56 100L0.56 88L12.56 88L12.56 100L0.56 100ZM13.06 100L13.06 88L25.06 88L25.06 100L13.06 100ZM63 100L63 88L75 88L75 100L63 100ZM50.5 100L50.5 88L62.5 88L62.5 100L50.5 100ZM75.44 87.5L75.44 75.5L87.44 75.5L87.44 87.5L75.44 87.5ZM87.94 87.5L87.94 75.5L99.94 75.5L99.94 87.5L87.94 87.5ZM25.5 87.5L25.5 75.5L37.5 75.5L37.5 87.5L25.5 87.5ZM38 87.5L38 75.5L50 75.5L50 87.5L38 87.5ZM0.5 87.5L0.5 75.5L12.5 75.5L12.5 87.5L0.5 87.5ZM13 87.5L13 75.5L25 75.5L25 87.5L13 87.5ZM62.94 87.5L62.94 75.5L74.94 75.5L74.94 87.5L62.94 87.5ZM50.44 87.5L50.44 75.5L62.44 75.5L62.44 87.5L50.44 87.5ZM50.5 75L50.5 63L62.5 63L62.5 75L50.5 75ZM63 75L63 63L75 63L75 75L63 75ZM13.06 75L13.06 63L25.06 63L25.06 75L13.06 75ZM0.56 75L0.56 63L12.56 63L12.56 75L0.56 75ZM38.06 75L38.06 63L50.06 63L50.06 75L38.06 75ZM25.56 75L25.56 63L37.56 63L37.56 75L25.56 75ZM88 75L88 63L100 63L100 75L88 75ZM75.5 75L75.5 63L87.5 63L87.5 75L75.5 75ZM50.44 62.5L50.44 50.5L62.44 50.5L62.44 62.5L50.44 62.5ZM62.94 62.5L62.94 50.5L74.94 50.5L74.94 62.5L62.94 62.5ZM13 62.5L13 50.5L25 50.5L25 62.5L13 62.5ZM0.5 62.5L0.5 50.5L12.5 50.5L12.5 62.5L0.5 62.5ZM38 62.5L38 50.5L50 50.5L50 62.5L38 62.5ZM25.5 62.5L25.5 50.5L37.5 50.5L37.5 62.5L25.5 62.5ZM87.94 62.5L87.94 50.5L99.94 50.5L99.94 62.5L87.94 62.5ZM75.44 62.5L75.44 50.5L87.44 50.5L87.44 62.5L75.44 62.5ZM75.5 50L75.5 38L87.5 38L87.5 50L75.5 50ZM88 50L88 38L100 38L100 50L88 50ZM25.56 50L25.56 38L37.56 38L37.56 50L25.56 50ZM38.06 50L38.06 38L50.06 38L50.06 50L38.06 50ZM0.56 50L0.56 38L12.56 38L12.56 50L0.56 50ZM13.06 50L13.06 38L25.06 38L25.06 50L13.06 50ZM63 50L63 38L75 38L75 50L63 50ZM50.5 50L50.5 38L62.5 38L62.5 50L50.5 50ZM75.44 37.5L75.44 25.5L87.44 25.5L87.44 37.5L75.44 37.5ZM87.94 37.5L87.94 25.5L99.94 25.5L99.94 37.5L87.94 37.5ZM25.5 37.5L25.5 25.5L37.5 25.5L37.5 37.5L25.5 37.5ZM38 37.5L38 25.5L50 25.5L50 37.5L38 37.5ZM0.5 37.5L0.5 25.5L12.5 25.5L12.5 37.5L0.5 37.5ZM13 37.5L13 25.5L25 25.5L25 37.5L13 37.5ZM62.94 37.5L62.94 25.5L74.94 25.5L74.94 37.5L62.94 37.5ZM50.44 37.5L50.44 25.5L62.44 25.5L62.44 37.5L50.44 37.5ZM75.5 25L75.5 13L87.5 13L87.5 25L75.5 25ZM88 25L88 13L100 13L100 25L88 25ZM25.56 25L25.56 13L37.56 13L37.56 25L25.56 25ZM38.06 25L38.06 13L50.06 13L50.06 25L38.06 25ZM0.56 25L0.56 13L12.56 13L12.56 25L0.56 25ZM13.06 25L13.06 13L25.06 13L25.06 25L13.06 25ZM63 25L63 13L75 13L75 25L63 25ZM50.5 25L50.5 13L62.5 13L62.5 25L50.5 25ZM75.44 12.5L75.44 0.5L87.44 0.5L87.44 12.5L75.44 12.5ZM87.94 12.5L87.94 0.5L99.94 0.5L99.94 12.5L87.94 12.5ZM25.5 12.5L25.5 0.5L37.5 0.5L37.5 12.5L25.5 12.5ZM38 12.5L38 0.5L50 0.5L50 12.5L38 12.5ZM0.5 12.5L0.5 0.5L12.5 0.5L12.5 12.5L0.5 12.5ZM13 12.5L13 0.5L25 0.5L25 12.5L13 12.5ZM62.94 12.5L62.94 0.5L74.94 0.5L74.94 12.5L62.94 12.5ZM50.44 12.5L50.44 0.5L62.44 0.5L62.44 12.5L50.44 12.5Z"
       id="k1yBUesdFD" />
    <path
       d="M9.25 6.25C9.25 7.35 8.35 8.25 7.25 8.25C6.15 8.25 5.25 7.35 5.25 6.25C5.25 5.15 6.15 4.25 7.25 4.25C8.35 4.25 9.25 5.15 9.25 6.25Z"
       id="bqACwwPI3" />
    <path
       d="M9.25 18.75C9.25 19.85 8.35 20.75 7.25 20.75C6.15 20.75 5.25 19.85 5.25 18.75C5.25 17.65 6.15 16.75 7.25 16.75C8.35 16.75 9.25 17.65 9.25 18.75Z"
       id="c1PU5udWpK" />
    <path
       d="M9.38 31.38C9.38 32.48 8.48 33.38 7.38 33.38C6.27 33.38 5.38 32.48 5.38 31.38C5.38 30.27 6.27 29.38 7.38 29.38C8.48 29.38 9.38 30.27 9.38 31.38Z"
       id="e1jAgUDR95" />
    <path
       d="M9.38 44.38C9.38 45.48 8.48 46.38 7.38 46.38C6.27 46.38 5.38 45.48 5.38 44.38C5.38 43.27 6.27 42.38 7.38 42.38C8.48 42.38 9.38 43.27 9.38 44.38Z"
       id="g5AZ1sR1n8" />
    <path
       d="M9.38 56.88C9.38 57.98 8.48 58.88 7.38 58.88C6.27 58.88 5.38 57.98 5.38 56.88C5.38 55.77 6.27 54.88 7.38 54.88C8.48 54.88 9.38 55.77 9.38 56.88Z"
       id="k2jgegnQm8" />
    <path
       d="M9.5 69.5C9.5 70.6 8.6 71.5 7.5 71.5C6.4 71.5 5.5 70.6 5.5 69.5C5.5 68.4 6.4 67.5 7.5 67.5C8.6 67.5 9.5 68.4 9.5 69.5Z"
       id="a35ZUiWqY7" />
    <path
       d="M33.38 6.38C33.38 7.48 32.48 8.38 31.38 8.38C30.27 8.38 29.38 7.48 29.38 6.38C29.38 5.27 30.27 4.38 31.38 4.38C32.48 4.38 33.38 5.27 33.38 6.38Z"
       id="aa9qUhTm6" />
    <path
       d="M33.38 18.88C33.38 19.98 32.48 20.88 31.38 20.88C30.27 20.88 29.38 19.98 29.38 18.88C29.38 17.77 30.27 16.88 31.38 16.88C32.48 16.88 33.38 17.77 33.38 18.88Z"
       id="b3howRlIvV" />
    <path
       d="M33.5 31.5C33.5 32.6 32.6 33.5 31.5 33.5C30.4 33.5 29.5 32.6 29.5 31.5C29.5 30.4 30.4 29.5 31.5 29.5C32.6 29.5 33.5 30.4 33.5 31.5Z"
       id="a3uKloc7SW" />
    <path
       d="M33.5 44.5C33.5 45.6 32.6 46.5 31.5 46.5C30.4 46.5 29.5 45.6 29.5 44.5C29.5 43.4 30.4 42.5 31.5 42.5C32.6 42.5 33.5 43.4 33.5 44.5Z"
       id="b1Vn9OfZCj" />
    <path
       d="M33.5 57C33.5 58.1 32.6 59 31.5 59C30.4 59 29.5 58.1 29.5 57C29.5 55.9 30.4 55 31.5 55C32.6 55 33.5 55.9 33.5 57Z"
       id="aETp8D6jo" />
    <path
       d="M33.63 69.63C33.63 70.73 32.73 71.63 31.63 71.63C30.52 71.63 29.63 70.73 29.63 69.63C29.63 68.52 30.52 67.63 31.63 67.63C32.73 67.63 33.63 68.52 33.63 69.63Z"
       id="bR7fcsHhC" />
    <path
       d="M58.5 6.5C58.5 7.6 57.6 8.5 56.5 8.5C55.4 8.5 54.5 7.6 54.5 6.5C54.5 5.4 55.4 4.5 56.5 4.5C57.6 4.5 58.5 5.4 58.5 6.5Z"
       id="a1K94gEujd" />
    <path
       d="M58.5 19C58.5 20.1 57.6 21 56.5 21C55.4 21 54.5 20.1 54.5 19C54.5 17.9 55.4 17 56.5 17C57.6 17 58.5 17.9 58.5 19Z"
       id="jYs5FZQ9b" />
    <path
       d="M58.63 31.63C58.63 32.73 57.73 33.63 56.63 33.63C55.52 33.63 54.63 32.73 54.63 31.63C54.63 30.52 55.52 29.63 56.63 29.63C57.73 29.63 58.63 30.52 58.63 31.63Z"
       id="a6DXntT4zy" />
    <path
       d="M58.63 44.63C58.63 45.73 57.73 46.63 56.63 46.63C55.52 46.63 54.63 45.73 54.63 44.63C54.63 43.52 55.52 42.63 56.63 42.63C57.73 42.63 58.63 43.52 58.63 44.63Z"
       id="ak7aHHT40" />
    <path
       d="M58.63 57.13C58.63 58.23 57.73 59.13 56.63 59.13C55.52 59.13 54.63 58.23 54.63 57.13C54.63 56.02 55.52 55.13 56.63 55.13C57.73 55.13 58.63 56.02 58.63 57.13Z"
       id="c1ojs28swx" />
    <path
       d="M58.75 69.75C58.75 70.85 57.85 71.75 56.75 71.75C55.65 71.75 54.75 70.85 54.75 69.75C54.75 68.65 55.65 67.75 56.75 67.75C57.85 67.75 58.75 68.65 58.75 69.75Z"
       id="d2PvvDwV1T" />
    <path
       d="M83.63 6.63C83.63 7.73 82.73 8.63 81.63 8.63C80.52 8.63 79.63 7.73 79.63 6.63C79.63 5.52 80.52 4.63 81.63 4.63C82.73 4.63 83.63 5.52 83.63 6.63Z"
       id="doTFNEp2b" />
    <path
       d="M83.63 19.13C83.63 20.23 82.73 21.13 81.63 21.13C80.52 21.13 79.63 20.23 79.63 19.13C79.63 18.02 80.52 17.13 81.63 17.13C82.73 17.13 83.63 18.02 83.63 19.13Z"
       id="c4bfL8HOc" />
    <path
       d="M83.75 31.75C83.75 32.85 82.85 33.75 81.75 33.75C80.65 33.75 79.75 32.85 79.75 31.75C79.75 30.65 80.65 29.75 81.75 29.75C82.85 29.75 83.75 30.65 83.75 31.75Z"
       id="bZ2pDcpm" />
    <path
       d="M83.75 44.75C83.75 45.85 82.85 46.75 81.75 46.75C80.65 46.75 79.75 45.85 79.75 44.75C79.75 43.65 80.65 42.75 81.75 42.75C82.85 42.75 83.75 43.65 83.75 44.75Z"
       id="a1t3N3zzph" />
    <path
       d="M83.75 57.25C83.75 58.35 82.85 59.25 81.75 59.25C80.65 59.25 79.75 58.35 79.75 57.25C79.75 56.15 80.65 55.25 81.75 55.25C82.85 55.25 83.75 56.15 83.75 57.25Z"
       id="a2numJxXn" />
    <path
       d="M83.88 69.88C83.88 70.98 82.98 71.88 81.88 71.88C80.77 71.88 79.88 70.98 79.88 69.88C79.88 68.77 80.77 67.88 81.88 67.88C82.98 67.88 83.88 68.77 83.88 69.88Z"
       id="a1uIEXvv5r" />
  </defs>
  <g
     id="g231">
    <g
       id="g229">
      <g
         id="g35">
        <use
           xlink:href="#k1yBUesdFD"
           opacity="1"
           fill="#2d78e0"
           fill-opacity="1"
           id="use29" />
        <g
           id="g33">
          <use
             xlink:href="#k1yBUesdFD"
             opacity="1"
             fill-opacity="0"
             stroke="#0318d7"
             stroke-width="1"
             stroke-opacity="1"
             id="use31" />
        </g>
      </g>
      <g
         id="g43">
        <use
           xlink:href="#bqACwwPI3"
           opacity="1"
           fill="#d1ec56"
           fill-opacity="1"
           id="use37" />
        <g
           id="g41">
          <use
             xlink:href="#bqACwwPI3"
             opacity="1"
             fill-opacity="0"
             stroke="#e8e930"
             stroke-width="1"
             stroke-opacity="1"
             id="use39" />
        </g>
      </g>
      <g
         id="g51">
        <use
           xlink:href="#c1PU5udWpK"
           opacity="1"
           fill="#d1ec56"
           fill-opacity="1"
           id="use45" />
        <g
           id="g49">
          <use
             xlink:href="#c1PU5udWpK"
             opacity="1"
             fill-opacity="0"
             stroke="#e8e930"
             stroke-width="1"
             stroke-opacity="1"
             id="use47" />
        </g>
      </g>
      <g
         id="g59">
        <use
           xlink:href="#e1jAgUDR95"
           opacity="1"
           fill="#d1ec56"
           fill-opacity="1"
           id="use53" />
        <g
           id="g57">
          <use
             xlink:href="#e1jAgUDR95"
             opacity="1"
             fill-opacity="0"
             stroke="#e8e930"
             stroke-width="1"
             stroke-opacity="1"
             id="use55" />
        </g>
      </g>
      <g
         id="g67">
        <use
           xlink:href="#g5AZ1sR1n8"
           opacity="1"
           fill="#d1ec56"
           fill-opacity="1"
           id="use61" />
        <g
           id="g65">
          <use
             xlink:href="#g5AZ1sR1n8"
             opacity="1"
             fill-opacity="0"
             stroke="#e8e930"
             stroke-width="1"
             stroke-opacity="1"
             id="use63" />
        </g>
      </g>
      <g
         id="g75">
        <use
           xlink:href="#k2jgegnQm8"
           opacity="1"
           fill="#d1ec56"
           fill-opacity="1"
           id="use69" />
        <g
           id="g73">
          <use
             xlink:href="#k2jgegnQm8"
             opacity="1"
             fill-opacity="0"
             stroke="#e8e930"
             stroke-width="1"
             stroke-opacity="1"
             id="use71" />
        </g>
      </g>
      <g
         id="g83">
        <use
           xlink:href="#a35ZUiWqY7"
           opacity="1"
           fill="#d1ec56"
           fill-opacity="1"
           id="use77" />
        <g
           id="g81">
          <use
             xlink:href="#a35ZUiWqY7"
             opacity="1"
             fill-opacity="0"
             stroke="#e8e930"
             stroke-width="1"
             stroke-opacity="1"
             id="use79" />
        </g>
      </g>
      <g
         id="g91">
        <use
           xlink:href="#aa9qUhTm6"
           opacity="1"
           fill="#d1ec56"
           fill-opacity="1"
           id="use85" />
        <g
           id="g89">
          <use
             xlink:href="#aa9qUhTm6"
             opacity="1"
             fill-opacity="0"
             stroke="#e8e930"
             stroke-width="1"
             stroke-opacity="1"
             id="use87" />
        </g>
      </g>
      <g
         id="g99">
        <use
           xlink:href="#b3howRlIvV"
           opacity="1"
           fill="#d1ec56"
           fill-opacity="1"
           id="use93" />
        <g
           id="g97">
          <use
             xlink:href="#b3howRlIvV"
             opacity="1"
             fill-opacity="0"
             stroke="#e8e930"
             stroke-width="1"
             stroke-opacity="1"
             id="use95" />
        </g>
      </g>
      <g
         id="g107">
        <use
           xlink:href="#a3uKloc7SW"
           opacity="1"
           fill="#d1ec56"
           fill-opacity="1"
           id="use101" />
        <g
           id="g105">
          <use
             xlink:href="#a3uKloc7SW"
             opacity="1"
             fill-opacity="0"
             stroke="#e8e930"
             stroke-width="1"
             stroke-opacity="1"
             id="use103" />
        </g>
      </g>
      <g
         id="g115">
        <use
           xlink:href="#b1Vn9OfZCj"
           opacity="1"
           fill="#d1ec56"
           fill-opacity="1"
           id="use109" />
        <g
           id="g113">
          <use
             xlink:href="#b1Vn9OfZCj"
             opacity="1"
             fill-opacity="0"
             stroke="#e8e930"
             stroke-width="1"
             stroke-opacity="1"
             id="use111" />
        </g>
      </g>
      <g
         id="g123">
        <use
           xlink:href="#aETp8D6jo"
           opacity="1"
           fill="#d1ec56"
           fill-opacity="1"
           id="use117" />
        <g
           id="g121">
          <use
             xlink:href="#aETp8D6jo"
             opacity="1"
             fill-opacity="0"
             stroke="#e8e930"
             stroke-width="1"
             stroke-opacity="1"
             id="use119" />
        </g>
      </g>
      <g
         id="g131">
        <use
           xlink:href="#bR7fcsHhC"
           opacity="1"
           fill="#d1ec56"
           fill-opacity="1"
           id="use125" />
        <g
           id="g129">
          <use
             xlink:href="#bR7fcsHhC"
             opacity="1"
             fill-opacity="0"
             stroke="#e8e930"
             stroke-width="1"
             stroke-opacity="1"
             id="use127" />
        </g>
      </g>
      <g
         id="g139">
        <use
           xlink:href="#a1K94gEujd"
           opacity="1"
           fill="#d1ec56"
           fill-opacity="1"
           id="use133" />
        <g
           id="g137">
          <use
             xlink:href="#a1K94gEujd"
             opacity="1"
             fill-opacity="0"
             stroke="#e8e930"
             stroke-width="1"
             stroke-opacity="1"
             id="use135" />
        </g>
      </g>
      <g
         id="g147">
        <use
           xlink:href="#jYs5FZQ9b"
           opacity="1"
           fill="#d1ec56"
           fill-opacity="1"
           id="use141" />
        <g
           id="g145">
          <use
             xlink:href="#jYs5FZQ9b"
             opacity="1"
             fill-opacity="0"
             stroke="#e8e930"
             stroke-width="1"
             stroke-opacity="1"
             id="use143" />
        </g>
      </g>
      <g
         id="g155">
        <use
           xlink:href="#a6DXntT4zy"
           opacity="1"
           fill="#d1ec56"
           fill-opacity="1"
           id="use149" />
        <g
           id="g153">
          <use
             xlink:href="#a6DXntT4zy"
             opacity="1"
             fill-opacity="0"
             stroke="#e8e930"
             stroke-width="1"
             stroke-opacity="1"
             id="use151" />
        </g>
      </g>
      <g
         id="g163">
        <use
           xlink:href="#ak7aHHT40"
           opacity="1"
           fill="#d1ec56"
           fill-opacity="1"
           id="use157" />
        <g
           id="g161">
          <use
             xlink:href="#ak7aHHT40"
             opacity="1"
             fill-opacity="0"
             stroke="#e8e930"
             stroke-width="1"
             stroke-opacity="1"
             id="use159" />
        </g>
      </g>
      <g
         id="g171">
        <use
           xlink:href="#c1ojs28swx"
           opacity="1"
           fill="#d1ec56"
           fill-opacity="1"
           id="use165" />
        <g
           id="g169">
          <use
             xlink:href="#c1ojs28swx"
             opacity="1"
             fill-opacity="0"
             stroke="#e8e930"
             stroke-width="1"
             stroke-opacity="1"
             id="use167" />
        </g>
      </g>
      <g
         id="g179">
        <use
           xlink:href="#d2PvvDwV1T"
           opacity="1"
           fill="#d1ec56"
           fill-opacity="1"
           id="use173" />
        <g
           id="g177">
          <use
             xlink:href="#d2PvvDwV1T"
             opacity="1"
             fill-opacity="0"
             stroke="#e8e930"
             stroke-width="1"
             stroke-opacity="1"
             id="use175" />
        </g>
      </g>
      <g
         id="g187">
        <use
           xlink:href="#doTFNEp2b"
           opacity="1"
           fill="#d1ec56"
           fill-opacity="1"
           id="use181" />
        <g
           id="g185">
          <use
             xlink:href="#doTFNEp2b"
             opacity="1"
             fill-opacity="0"
             stroke="#e8e930"
             stroke-width="1"
             stroke-opacity="1"
             id="use183" />
        </g>
      </g>
      <g
         id="g195">
        <use
           xlink:href="#c4bfL8HOc"
           opacity="1"
           fill="#d1ec56"
           fill-opacity="1"
           id="use189" />
        <g
           id="g193">
          <use
             xlink:href="#c4bfL8HOc"
             opacity="1"
             fill-opacity="0"
             stroke="#e8e930"
             stroke-width="1"
             stroke-opacity="1"
             id="use191" />
        </g>
      </g>
      <g
         id="g203">
        <use
           xlink:href="#bZ2pDcpm"
           opacity="1"
           fill="#d1ec56"
           fill-opacity="1"
           id="use197" />
        <g
           id="g201">
          <use
             xlink:href="#bZ2pDcpm"
             opacity="1"
             fill-opacity="0"
             stroke="#e8e930"
             stroke-width="1"
             stroke-opacity="1"
             id="use199" />
        </g>
      </g>
      <g
         id="g211">
        <use
           xlink:href="#a1t3N3zzph"
           opacity="1"
           fill="#d1ec56"
           fill-opacity="1"
           id="use205" />
        <g
           id="g209">
          <use
             xlink:href="#a1t3N3zzph"
             opacity="1"
             fill-opacity="0"
             stroke="#e8e930"
             stroke-width="1"
             stroke-opacity="1"
             id="use207" />
        </g>
      </g>
      <g
         id="g219">
        <use
           xlink:href="#a2numJxXn"
           opacity="1"
           fill="#d1ec56"
           fill-opacity="1"
           id="use213" />
        <g
           id="g217">
          <use
             xlink:href="#a2numJxXn"
             opacity="1"
             fill-opacity="0"
             stroke="#e8e930"
             stroke-width="1"
             stroke-opacity="1"
             id="use215" />
        </g>
      </g>
      <g
         id="g227">
        <use
           xlink:href="#a1uIEXvv5r"
           opacity="1"
           fill="#d1ec56"
           fill-opacity="1"
           id="use221" />
        <g
           id="g225">
          <use
             xlink:href="#a1uIEXvv5r"
             opacity="1"
             fill-opacity="0"
             stroke="#e8e930"
             stroke-width="1"
             stroke-opacity="1"
             id="use223" />
        </g>
      </g>
    </g>
  </g>
  <rect
     style="fill:#ff0000"
     id="rect245"
     width="9.2771082"
     height="1.0843374"
     x="2.0481927"
     y="12.168675" />
  <rect
     style="fill:#ff0000"
     id="rect245-6"
     width="9.2771082"
     height="1.0843374"
     x="1.9879509"
     y="24.759035" />
  <rect
     style="fill:#ff0000"
     id="rect245-1"
     width="9.2771082"
     height="1.0843374"
     x="1.86747"
     y="37.530125" />
  <rect
     style="fill:#ff0000"
     id="rect245-11"
     width="9.2771082"
     height="1.0843374"
     x="26.80723"
     y="12.349396" />
  <rect
     style="fill:#ff0000"
     id="rect245-11-7"
     width="9.2771082"
     height="1.0843374"
     x="27.018072"
     y="24.536144" />
  <rect
     style="fill:#ff0000"
     id="rect245-11-9"
     width="9.2771082"
     height="1.0843374"
     x="27.048193"
     y="37.168674" />
  <rect
     style="fill:#00ffff"
     id="rect245-11-98"
     width="9.2771082"
     height="1.0843374"
     x="51.746986"
     y="37.289158" />
  <rect
     style="fill:#00ffff"
     id="rect245-11-98-2"
     width="9.2771082"
     height="1.0843374"
     x="51.74699"
     y="74.518074" />
  <rect
     style="fill:#00ffff"
     id="rect245-11-98-5"
     width="9.2771082"
     height="1.0843374"
     x="76.686752"
     y="37.289162" />
  <rect
     style="fill:#00ffff"
     id="rect245-11-98-1"
     width="9.2771082"
     height="1.0843374"
     x="76.807228"
     y="74.879517" />
</svg>
