<?xml version="1.0" encoding="UTF-8" standalone="no"?>
<svg
   xmlns:dc="http://purl.org/dc/elements/1.1/"
   xmlns:cc="http://creativecommons.org/ns#"
   xmlns:rdf="http://www.w3.org/1999/02/22-rdf-syntax-ns#"
   xmlns:svg="http://www.w3.org/2000/svg"
   xmlns="http://www.w3.org/2000/svg"
   xmlns:xlink="http://www.w3.org/1999/xlink"
   xmlns:sodipodi="http://sodipodi.sourceforge.net/DTD/sodipodi-0.dtd"
   xmlns:inkscape="http://www.inkscape.org/namespaces/inkscape"
   version="1.1"
   preserveAspectRatio="xMidYMid meet"
   viewBox="0 0 100 100"
   width="100"
   height="100"
   id="svg449"
   sodipodi:docname="1x2_4x4_little_far_apart.svg"
   inkscape:version="1.0.1 (3bc2e813f5, 2020-09-07)">
  <metadata
     id="metadata453">
    <rdf:RDF>
      <cc:Work
         rdf:about="">
        <dc:format>image/svg+xml</dc:format>
        <dc:type
           rdf:resource="http://purl.org/dc/dcmitype/StillImage" />
      </cc:Work>
    </rdf:RDF>
  </metadata>
  <sodipodi:namedview
     pagecolor="#ffffff"
     bordercolor="#666666"
     borderopacity="1"
     objecttolerance="10"
     gridtolerance="10"
     guidetolerance="10"
     inkscape:pageopacity="0"
     inkscape:pageshadow="2"
     inkscape:window-width="1920"
     inkscape:window-height="1001"
     id="namedview451"
     showgrid="false"
     inkscape:zoom="8.3"
     inkscape:cx="50"
     inkscape:cy="50"
     inkscape:window-x="-9"
     inkscape:window-y="-9"
     inkscape:window-maximized="1"
     inkscape:current-layer="svg449"
     inkscape:document-rotation="0" />
  <defs
     id="defs51">
    <path
       d="M75.5 100L75.5 88L87.5 88L87.5 100L75.5 100ZM88 100L88 88L100 88L100 100L88 100ZM25.56 100L25.56 88L37.56 88L37.56 100L25.56 100ZM38.06 100L38.06 88L50.06 88L50.06 100L38.06 100ZM0.56 100L0.56 88L12.56 88L12.56 100L0.56 100ZM13.06 100L13.06 88L25.06 88L25.06 100L13.06 100ZM63 100L63 88L75 88L75 100L63 100ZM50.5 100L50.5 88L62.5 88L62.5 100L50.5 100ZM75.44 87.5L75.44 75.5L87.44 75.5L87.44 87.5L75.44 87.5ZM87.94 87.5L87.94 75.5L99.94 75.5L99.94 87.5L87.94 87.5ZM25.5 87.5L25.5 75.5L37.5 75.5L37.5 87.5L25.5 87.5ZM38 87.5L38 75.5L50 75.5L50 87.5L38 87.5ZM0.5 87.5L0.5 75.5L12.5 75.5L12.5 87.5L0.5 87.5ZM13 87.5L13 75.5L25 75.5L25 87.5L13 87.5ZM62.94 87.5L62.94 75.5L74.94 75.5L74.94 87.5L62.94 87.5ZM50.44 87.5L50.44 75.5L62.44 75.5L62.44 87.5L50.44 87.5ZM50.5 75L50.5 63L62.5 63L62.5 75L50.5 75ZM63 75L63 63L75 63L75 75L63 75ZM13.06 75L13.06 63L25.06 63L25.06 75L13.06 75ZM0.56 75L0.56 63L12.56 63L12.56 75L0.56 75ZM38.06 75L38.06 63L50.06 63L50.06 75L38.06 75ZM25.56 75L25.56 63L37.56 63L37.56 75L25.56 75ZM88 75L88 63L100 63L100 75L88 75ZM75.5 75L75.5 63L87.5 63L87.5 75L75.5 75ZM50.44 62.5L50.44 50.5L62.44 50.5L62.44 62.5L50.44 62.5ZM62.94 62.5L62.94 50.5L74.94 50.5L74.94 62.5L62.94 62.5ZM13 62.5L13 50.5L25 50.5L25 62.5L13 62.5ZM0.5 62.5L0.5 50.5L12.5 50.5L12.5 62.5L0.5 62.5ZM38 62.5L38 50.5L50 50.5L50 62.5L38 62.5ZM25.5 62.5L25.5 50.5L37.5 50.5L37.5 62.5L25.5 62.5ZM87.94 62.5L87.94 50.5L99.94 50.5L99.94 62.5L87.94 62.5ZM75.44 62.5L75.44 50.5L87.44 50.5L87.44 62.5L75.44 62.5ZM75.5 50L75.5 38L87.5 38L87.5 50L75.5 50ZM88 50L88 38L100 38L100 50L88 50ZM25.56 50L25.56 38L37.56 38L37.56 50L25.56 50ZM38.06 50L38.06 38L50.06 38L50.06 50L38.06 50ZM0.56 50L0.56 38L12.56 38L12.56 50L0.56 50ZM13.06 50L13.06 38L25.06 38L25.06 50L13.06 50ZM63 50L63 38L75 38L75 50L63 50ZM50.5 50L50.5 38L62.5 38L62.5 50L50.5 50ZM75.44 37.5L75.44 25.5L87.44 25.5L87.44 37.5L75.44 37.5ZM87.94 37.5L87.94 25.5L99.94 25.5L99.94 37.5L87.94 37.5ZM25.5 37.5L25.5 25.5L37.5 25.5L37.5 37.5L25.5 37.5ZM38 37.5L38 25.5L50 25.5L50 37.5L38 37.5ZM0.5 37.5L0.5 25.5L12.5 25.5L12.5 37.5L0.5 37.5ZM13 37.5L13 25.5L25 25.5L25 37.5L13 37.5ZM62.94 37.5L62.94 25.5L74.94 25.5L74.94 37.5L62.94 37.5ZM50.44 37.5L50.44 25.5L62.44 25.5L62.44 37.5L50.44 37.5ZM75.5 25L75.5 13L87.5 13L87.5 25L75.5 25ZM88 25L88 13L100 13L100 25L88 25ZM25.56 25L25.56 13L37.56 13L37.56 25L25.56 25ZM38.06 25L38.06 13L50.06 13L50.06 25L38.06 25ZM0.56 25L0.56 13L12.56 13L12.56 25L0.56 25ZM13.06 25L13.06 13L25.06 13L25.06 25L13.06 25ZM63 25L63 13L75 13L75 25L63 25ZM50.5 25L50.5 13L62.5 13L62.5 25L50.5 25ZM75.44 12.5L75.44 0.5L87.44 0.5L87.44 12.5L75.44 12.5ZM87.94 12.5L87.94 0.5L99.94 0.5L99.94 12.5L87.94 12.5ZM25.5 12.5L25.5 0.5L37.5 0.5L37.5 12.5L25.5 12.5ZM38 12.5L38 0.5L50 0.5L50 12.5L38 12.5ZM0.5 12.5L0.5 0.5L12.5 0.5L12.5 12.5L0.5 12.5ZM13 12.5L13 0.5L25 0.5L25 12.5L13 12.5ZM62.94 12.5L62.94 0.5L74.94 0.5L74.94 12.5L62.94 12.5ZM50.44 12.5L50.44 0.5L62.44 0.5L62.44 12.5L50.44 12.5Z"
       id="k1yBUesdFD" />
    <path
       d="M8.25 6.25C8.25 7.35 7.35 8.25 6.25 8.25C5.15 8.25 4.25 7.35 4.25 6.25C4.25 5.15 5.15 4.25 6.25 4.25C7.35 4.25 8.25 5.15 8.25 6.25Z"
       id="bhyhq1KxK" />
    <path
       d="M20.75 6.25C20.75 7.35 19.85 8.25 18.75 8.25C17.65 8.25 16.75 7.35 16.75 6.25C16.75 5.15 17.65 4.25 18.75 4.25C19.85 4.25 20.75 5.15 20.75 6.25Z"
       id="ccfIODRHi" />
    <path
       d="M8.25 18.75C8.25 19.85 7.35 20.75 6.25 20.75C5.15 20.75 4.25 19.85 4.25 18.75C4.25 17.65 5.15 16.75 6.25 16.75C7.35 16.75 8.25 17.65 8.25 18.75Z"
       id="bju88I9NZ" />
    <path
       d="M20.75 18.75C20.75 19.85 19.85 20.75 18.75 20.75C17.65 20.75 16.75 19.85 16.75 18.75C16.75 17.65 17.65 16.75 18.75 16.75C19.85 16.75 20.75 17.65 20.75 18.75Z"
       id="c282ybjiQx" />
    <path
       d="M45.63 6.63C45.63 7.73 44.73 8.63 43.63 8.63C42.52 8.63 41.63 7.73 41.63 6.63C41.63 5.52 42.52 4.63 43.63 4.63C44.73 4.63 45.63 5.52 45.63 6.63Z"
       id="b19w0Rw61o" />
    <path
       d="M58.13 6.63C58.13 7.73 57.23 8.63 56.13 8.63C55.02 8.63 54.13 7.73 54.13 6.63C54.13 5.52 55.02 4.63 56.13 4.63C57.23 4.63 58.13 5.52 58.13 6.63Z"
       id="b6BRy9RSh" />
    <path
       d="M45.63 19.13C45.63 20.23 44.73 21.13 43.63 21.13C42.52 21.13 41.63 20.23 41.63 19.13C41.63 18.02 42.52 17.13 43.63 17.13C44.73 17.13 45.63 18.02 45.63 19.13Z"
       id="b2dZYf9Lr5" />
    <path
       d="M58.13 19.13C58.13 20.23 57.23 21.13 56.13 21.13C55.02 21.13 54.13 20.23 54.13 19.13C54.13 18.02 55.02 17.13 56.13 17.13C57.23 17.13 58.13 18.02 58.13 19.13Z"
       id="awAP1kf3E" />
    <path
       d="M8.38 31.38C8.38 32.48 7.48 33.38 6.38 33.38C5.27 33.38 4.38 32.48 4.38 31.38C4.38 30.27 5.27 29.38 6.38 29.38C7.48 29.38 8.38 30.27 8.38 31.38Z"
       id="bwjKvqB9O" />
    <path
       d="M20.88 31.38C20.88 32.48 19.98 33.38 18.88 33.38C17.77 33.38 16.88 32.48 16.88 31.38C16.88 30.27 17.77 29.38 18.88 29.38C19.98 29.38 20.88 30.27 20.88 31.38Z"
       id="f4VDwcpgX" />
    <path
       d="M8.38 43.88C8.38 44.98 7.48 45.88 6.38 45.88C5.27 45.88 4.38 44.98 4.38 43.88C4.38 42.77 5.27 41.88 6.38 41.88C7.48 41.88 8.38 42.77 8.38 43.88Z"
       id="jR6liNVGX" />
    <path
       d="M20.88 43.88C20.88 44.98 19.98 45.88 18.88 45.88C17.77 45.88 16.88 44.98 16.88 43.88C16.88 42.77 17.77 41.88 18.88 41.88C19.98 41.88 20.88 42.77 20.88 43.88Z"
       id="c7Plv4Ozob" />
    <path
       d="M45.63 31.63C45.63 32.73 44.73 33.63 43.63 33.63C42.52 33.63 41.63 32.73 41.63 31.63C41.63 30.52 42.52 29.63 43.63 29.63C44.73 29.63 45.63 30.52 45.63 31.63Z"
       id="b214E3VzN" />
    <path
       d="M58.13 31.63C58.13 32.73 57.23 33.63 56.13 33.63C55.02 33.63 54.13 32.73 54.13 31.63C54.13 30.52 55.02 29.63 56.13 29.63C57.23 29.63 58.13 30.52 58.13 31.63Z"
       id="c1atvl1Ye6" />
    <path
       d="M45.63 44.13C45.63 45.23 44.73 46.13 43.63 46.13C42.52 46.13 41.63 45.23 41.63 44.13C41.63 43.02 42.52 42.13 43.63 42.13C44.73 42.13 45.63 43.02 45.63 44.13Z"
       id="a1DiLGuCn2" />
    <path
       d="M58.13 44.13C58.13 45.23 57.23 46.13 56.13 46.13C55.02 46.13 54.13 45.23 54.13 44.13C54.13 43.02 55.02 42.13 56.13 42.13C57.23 42.13 58.13 43.02 58.13 44.13Z"
       id="a1xgBqRt26" />
    <path
       d="M8.75 56.75C8.75 57.85 7.85 58.75 6.75 58.75C5.65 58.75 4.75 57.85 4.75 56.75C4.75 55.65 5.65 54.75 6.75 54.75C7.85 54.75 8.75 55.65 8.75 56.75Z"
       id="c4XU3wMU3q" />
    <path
       d="M21.25 56.75C21.25 57.85 20.35 58.75 19.25 58.75C18.15 58.75 17.25 57.85 17.25 56.75C17.25 55.65 18.15 54.75 19.25 54.75C20.35 54.75 21.25 55.65 21.25 56.75Z"
       id="a4y0A6F09G" />
    <path
       d="M8.75 69.25C8.75 70.35 7.85 71.25 6.75 71.25C5.65 71.25 4.75 70.35 4.75 69.25C4.75 68.15 5.65 67.25 6.75 67.25C7.85 67.25 8.75 68.15 8.75 69.25Z"
       id="bTkJKotyE" />
    <path
       d="M21.25 69.25C21.25 70.35 20.35 71.25 19.25 71.25C18.15 71.25 17.25 70.35 17.25 69.25C17.25 68.15 18.15 67.25 19.25 67.25C20.35 67.25 21.25 68.15 21.25 69.25Z"
       id="a3uRycnTuR" />
    <path
       d="M45.88 56.88C45.88 57.98 44.98 58.88 43.88 58.88C42.77 58.88 41.88 57.98 41.88 56.88C41.88 55.77 42.77 54.88 43.88 54.88C44.98 54.88 45.88 55.77 45.88 56.88Z"
       id="bHknIyo1F" />
    <path
       d="M58.38 56.88C58.38 57.98 57.48 58.88 56.38 58.88C55.27 58.88 54.38 57.98 54.38 56.88C54.38 55.77 55.27 54.88 56.38 54.88C57.48 54.88 58.38 55.77 58.38 56.88Z"
       id="d5xdaGJ539" />
    <path
       d="M45.88 69.38C45.88 70.48 44.98 71.38 43.88 71.38C42.77 71.38 41.88 70.48 41.88 69.38C41.88 68.27 42.77 67.38 43.88 67.38C44.98 67.38 45.88 68.27 45.88 69.38Z"
       id="gb8EEDJDM" />
    <path
       d="M58.38 69.38C58.38 70.48 57.48 71.38 56.38 71.38C55.27 71.38 54.38 70.48 54.38 69.38C54.38 68.27 55.27 67.38 56.38 67.38C57.48 67.38 58.38 68.27 58.38 69.38Z"
       id="c1PIYoJlWB" />
    <path
       d="M9 82C9 83.1 8.1 84 7 84C5.9 84 5 83.1 5 82C5 80.9 5.9 80 7 80C8.1 80 9 80.9 9 82Z"
       id="b1d1tXIFdz" />
    <path
       d="M21.5 82C21.5 83.1 20.6 84 19.5 84C18.4 84 17.5 83.1 17.5 82C17.5 80.9 18.4 80 19.5 80C20.6 80 21.5 80.9 21.5 82Z"
       id="bsdjxIrsO" />
    <path
       d="M9 94.5C9 95.6 8.1 96.5 7 96.5C5.9 96.5 5 95.6 5 94.5C5 93.4 5.9 92.5 7 92.5C8.1 92.5 9 93.4 9 94.5Z"
       id="bfXP4lw6a" />
    <path
       d="M21.5 94.5C21.5 95.6 20.6 96.5 19.5 96.5C18.4 96.5 17.5 95.6 17.5 94.5C17.5 93.4 18.4 92.5 19.5 92.5C20.6 92.5 21.5 93.4 21.5 94.5Z"
       id="b1pdcZBNxu" />
    <path
       d="M46.13 81.13C46.13 82.23 45.23 83.13 44.13 83.13C43.02 83.13 42.13 82.23 42.13 81.13C42.13 80.02 43.02 79.13 44.13 79.13C45.23 79.13 46.13 80.02 46.13 81.13Z"
       id="bnh83lUJe" />
    <path
       d="M58.63 81.13C58.63 82.23 57.73 83.13 56.63 83.13C55.52 83.13 54.63 82.23 54.63 81.13C54.63 80.02 55.52 79.13 56.63 79.13C57.73 79.13 58.63 80.02 58.63 81.13Z"
       id="e5FyKiJIOZ" />
    <path
       d="M46.13 93.63C46.13 94.73 45.23 95.63 44.13 95.63C43.02 95.63 42.13 94.73 42.13 93.63C42.13 92.52 43.02 91.63 44.13 91.63C45.23 91.63 46.13 92.52 46.13 93.63Z"
       id="a1Bt3Rtyj" />
    <path
       d="M58.63 93.63C58.63 94.73 57.73 95.63 56.63 95.63C55.52 95.63 54.63 94.73 54.63 93.63C54.63 92.52 55.52 91.63 56.63 91.63C57.73 91.63 58.63 92.52 58.63 93.63Z"
       id="a2mGufOzga" />
    <path
       d="M83.25 6.25C83.25 7.35 82.35 8.25 81.25 8.25C80.15 8.25 79.25 7.35 79.25 6.25C79.25 5.15 80.15 4.25 81.25 4.25C82.35 4.25 83.25 5.15 83.25 6.25Z"
       id="al2OgS00v" />
    <path
       d="M95.75 6.25C95.75 7.35 94.85 8.25 93.75 8.25C92.65 8.25 91.75 7.35 91.75 6.25C91.75 5.15 92.65 4.25 93.75 4.25C94.85 4.25 95.75 5.15 95.75 6.25Z"
       id="c4EG4EVbfN" />
    <path
       d="M83.25 18.75C83.25 19.85 82.35 20.75 81.25 20.75C80.15 20.75 79.25 19.85 79.25 18.75C79.25 17.65 80.15 16.75 81.25 16.75C82.35 16.75 83.25 17.65 83.25 18.75Z"
       id="bHLlH39ci" />
    <path
       d="M95.75 18.75C95.75 19.85 94.85 20.75 93.75 20.75C92.65 20.75 91.75 19.85 91.75 18.75C91.75 17.65 92.65 16.75 93.75 16.75C94.85 16.75 95.75 17.65 95.75 18.75Z"
       id="i4JXHoQXMx" />
    <path
       d="M83.38 31.38C83.38 32.48 82.48 33.38 81.38 33.38C80.27 33.38 79.38 32.48 79.38 31.38C79.38 30.27 80.27 29.38 81.38 29.38C82.48 29.38 83.38 30.27 83.38 31.38Z"
       id="a1tYrTqQ7e" />
    <path
       d="M95.88 31.38C95.88 32.48 94.98 33.38 93.88 33.38C92.77 33.38 91.88 32.48 91.88 31.38C91.88 30.27 92.77 29.38 93.88 29.38C94.98 29.38 95.88 30.27 95.88 31.38Z"
       id="e27erVnD6E" />
    <path
       d="M83.38 43.88C83.38 44.98 82.48 45.88 81.38 45.88C80.27 45.88 79.38 44.98 79.38 43.88C79.38 42.77 80.27 41.88 81.38 41.88C82.48 41.88 83.38 42.77 83.38 43.88Z"
       id="c2HlIWeRG" />
    <path
       d="M95.88 43.88C95.88 44.98 94.98 45.88 93.88 45.88C92.77 45.88 91.88 44.98 91.88 43.88C91.88 42.77 92.77 41.88 93.88 41.88C94.98 41.88 95.88 42.77 95.88 43.88Z"
       id="a3hqsvH3FJ" />
    <path
       d="M83.5 56.5C83.5 57.6 82.6 58.5 81.5 58.5C80.4 58.5 79.5 57.6 79.5 56.5C79.5 55.4 80.4 54.5 81.5 54.5C82.6 54.5 83.5 55.4 83.5 56.5Z"
       id="b3iYXhMoqo" />
    <path
       d="M96 56.5C96 57.6 95.1 58.5 94 58.5C92.9 58.5 92 57.6 92 56.5C92 55.4 92.9 54.5 94 54.5C95.1 54.5 96 55.4 96 56.5Z"
       id="d6eIUvss72" />
    <path
       d="M83.5 69C83.5 70.1 82.6 71 81.5 71C80.4 71 79.5 70.1 79.5 69C79.5 67.9 80.4 67 81.5 67C82.6 67 83.5 67.9 83.5 69Z"
       id="bk8kRkrEf" />
    <path
       d="M96 69C96 70.1 95.1 71 94 71C92.9 71 92 70.1 92 69C92 67.9 92.9 67 94 67C95.1 67 96 67.9 96 69Z"
       id="a1QH3zQo9G" />
    <path
       d="M83.75 81.75C83.75 82.85 82.85 83.75 81.75 83.75C80.65 83.75 79.75 82.85 79.75 81.75C79.75 80.65 80.65 79.75 81.75 79.75C82.85 79.75 83.75 80.65 83.75 81.75Z"
       id="eMS50hP5y" />
    <path
       d="M96.25 81.75C96.25 82.85 95.35 83.75 94.25 83.75C93.15 83.75 92.25 82.85 92.25 81.75C92.25 80.65 93.15 79.75 94.25 79.75C95.35 79.75 96.25 80.65 96.25 81.75Z"
       id="i4mFm0xPJB" />
    <path
       d="M83.75 94.25C83.75 95.35 82.85 96.25 81.75 96.25C80.65 96.25 79.75 95.35 79.75 94.25C79.75 93.15 80.65 92.25 81.75 92.25C82.85 92.25 83.75 93.15 83.75 94.25Z"
       id="a71OfMM0rK" />
    <path
       d="M96.25 94.25C96.25 95.35 95.35 96.25 94.25 96.25C93.15 96.25 92.25 95.35 92.25 94.25C92.25 93.15 93.15 92.25 94.25 92.25C95.35 92.25 96.25 93.15 96.25 94.25Z"
       id="e6dLrUzEu" />
  </defs>
  <g
     id="g447">
    <g
       id="g445">
      <g
         id="g59">
        <use
           xlink:href="#k1yBUesdFD"
           opacity="1"
           fill="#2d78e0"
           fill-opacity="1"
           id="use53" />
        <g
           id="g57">
          <use
             xlink:href="#k1yBUesdFD"
             opacity="1"
             fill-opacity="0"
             stroke="#0318d7"
             stroke-width="1"
             stroke-opacity="1"
             id="use55" />
        </g>
      </g>
      <g
         id="g67">
        <use
           xlink:href="#bhyhq1KxK"
           opacity="1"
           fill="#d1ec56"
           fill-opacity="1"
           id="use61" />
        <g
           id="g65">
          <use
             xlink:href="#bhyhq1KxK"
             opacity="1"
             fill-opacity="0"
             stroke="#e8e930"
             stroke-width="1"
             stroke-opacity="1"
             id="use63" />
        </g>
      </g>
      <g
         id="g75">
        <use
           xlink:href="#ccfIODRHi"
           opacity="1"
           fill="#d1ec56"
           fill-opacity="1"
           id="use69" />
        <g
           id="g73">
          <use
             xlink:href="#ccfIODRHi"
             opacity="1"
             fill-opacity="0"
             stroke="#e8e930"
             stroke-width="1"
             stroke-opacity="1"
             id="use71" />
        </g>
      </g>
      <g
         id="g83">
        <use
           xlink:href="#bju88I9NZ"
           opacity="1"
           fill="#d1ec56"
           fill-opacity="1"
           id="use77" />
        <g
           id="g81">
          <use
             xlink:href="#bju88I9NZ"
             opacity="1"
             fill-opacity="0"
             stroke="#e8e930"
             stroke-width="1"
             stroke-opacity="1"
             id="use79" />
        </g>
      </g>
      <g
         id="g91">
        <use
           xlink:href="#c282ybjiQx"
           opacity="1"
           fill="#d1ec56"
           fill-opacity="1"
           id="use85" />
        <g
           id="g89">
          <use
             xlink:href="#c282ybjiQx"
             opacity="1"
             fill-opacity="0"
             stroke="#e8e930"
             stroke-width="1"
             stroke-opacity="1"
             id="use87" />
        </g>
      </g>
      <g
         id="g99">
        <use
           xlink:href="#b19w0Rw61o"
           opacity="1"
           fill="#d1ec56"
           fill-opacity="1"
           id="use93" />
        <g
           id="g97">
          <use
             xlink:href="#b19w0Rw61o"
             opacity="1"
             fill-opacity="0"
             stroke="#e8e930"
             stroke-width="1"
             stroke-opacity="1"
             id="use95" />
        </g>
      </g>
      <g
         id="g107">
        <use
           xlink:href="#b6BRy9RSh"
           opacity="1"
           fill="#d1ec56"
           fill-opacity="1"
           id="use101" />
        <g
           id="g105">
          <use
             xlink:href="#b6BRy9RSh"
             opacity="1"
             fill-opacity="0"
             stroke="#e8e930"
             stroke-width="1"
             stroke-opacity="1"
             id="use103" />
        </g>
      </g>
      <g
         id="g115">
        <use
           xlink:href="#b2dZYf9Lr5"
           opacity="1"
           fill="#d1ec56"
           fill-opacity="1"
           id="use109" />
        <g
           id="g113">
          <use
             xlink:href="#b2dZYf9Lr5"
             opacity="1"
             fill-opacity="0"
             stroke="#e8e930"
             stroke-width="1"
             stroke-opacity="1"
             id="use111" />
        </g>
      </g>
      <g
         id="g123">
        <use
           xlink:href="#awAP1kf3E"
           opacity="1"
           fill="#d1ec56"
           fill-opacity="1"
           id="use117" />
        <g
           id="g121">
          <use
             xlink:href="#awAP1kf3E"
             opacity="1"
             fill-opacity="0"
             stroke="#e8e930"
             stroke-width="1"
             stroke-opacity="1"
             id="use119" />
        </g>
      </g>
      <g
         id="g131">
        <use
           xlink:href="#bwjKvqB9O"
           opacity="1"
           fill="#d1ec56"
           fill-opacity="1"
           id="use125" />
        <g
           id="g129">
          <use
             xlink:href="#bwjKvqB9O"
             opacity="1"
             fill-opacity="0"
             stroke="#e8e930"
             stroke-width="1"
             stroke-opacity="1"
             id="use127" />
        </g>
      </g>
      <g
         id="g139">
        <use
           xlink:href="#f4VDwcpgX"
           opacity="1"
           fill="#d1ec56"
           fill-opacity="1"
           id="use133" />
        <g
           id="g137">
          <use
             xlink:href="#f4VDwcpgX"
             opacity="1"
             fill-opacity="0"
             stroke="#e8e930"
             stroke-width="1"
             stroke-opacity="1"
             id="use135" />
        </g>
      </g>
      <g
         id="g147">
        <use
           xlink:href="#jR6liNVGX"
           opacity="1"
           fill="#d1ec56"
           fill-opacity="1"
           id="use141" />
        <g
           id="g145">
          <use
             xlink:href="#jR6liNVGX"
             opacity="1"
             fill-opacity="0"
             stroke="#e8e930"
             stroke-width="1"
             stroke-opacity="1"
             id="use143" />
        </g>
      </g>
      <g
         id="g155">
        <use
           xlink:href="#c7Plv4Ozob"
           opacity="1"
           fill="#d1ec56"
           fill-opacity="1"
           id="use149" />
        <g
           id="g153">
          <use
             xlink:href="#c7Plv4Ozob"
             opacity="1"
             fill-opacity="0"
             stroke="#e8e930"
             stroke-width="1"
             stroke-opacity="1"
             id="use151" />
        </g>
      </g>
      <g
         id="g163">
        <use
           xlink:href="#b214E3VzN"
           opacity="1"
           fill="#d1ec56"
           fill-opacity="1"
           id="use157" />
        <g
           id="g161">
          <use
             xlink:href="#b214E3VzN"
             opacity="1"
             fill-opacity="0"
             stroke="#e8e930"
             stroke-width="1"
             stroke-opacity="1"
             id="use159" />
        </g>
      </g>
      <g
         id="g171">
        <use
           xlink:href="#c1atvl1Ye6"
           opacity="1"
           fill="#d1ec56"
           fill-opacity="1"
           id="use165" />
        <g
           id="g169">
          <use
             xlink:href="#c1atvl1Ye6"
             opacity="1"
             fill-opacity="0"
             stroke="#e8e930"
             stroke-width="1"
             stroke-opacity="1"
             id="use167" />
        </g>
      </g>
      <g
         id="g179">
        <use
           xlink:href="#a1DiLGuCn2"
           opacity="1"
           fill="#d1ec56"
           fill-opacity="1"
           id="use173" />
        <g
           id="g177">
          <use
             xlink:href="#a1DiLGuCn2"
             opacity="1"
             fill-opacity="0"
             stroke="#e8e930"
             stroke-width="1"
             stroke-opacity="1"
             id="use175" />
        </g>
      </g>
      <g
         id="g187">
        <use
           xlink:href="#a1xgBqRt26"
           opacity="1"
           fill="#d1ec56"
           fill-opacity="1"
           id="use181" />
        <g
           id="g185">
          <use
             xlink:href="#a1xgBqRt26"
             opacity="1"
             fill-opacity="0"
             stroke="#e8e930"
             stroke-width="1"
             stroke-opacity="1"
             id="use183" />
        </g>
      </g>
      <g
         id="g195">
        <use
           xlink:href="#c4XU3wMU3q"
           opacity="1"
           fill="#d1ec56"
           fill-opacity="1"
           id="use189" />
        <g
           id="g193">
          <use
             xlink:href="#c4XU3wMU3q"
             opacity="1"
             fill-opacity="0"
             stroke="#e8e930"
             stroke-width="1"
             stroke-opacity="1"
             id="use191" />
        </g>
      </g>
      <g
         id="g203">
        <use
           xlink:href="#a4y0A6F09G"
           opacity="1"
           fill="#d1ec56"
           fill-opacity="1"
           id="use197" />
        <g
           id="g201">
          <use
             xlink:href="#a4y0A6F09G"
             opacity="1"
             fill-opacity="0"
             stroke="#e8e930"
             stroke-width="1"
             stroke-opacity="1"
             id="use199" />
        </g>
      </g>
      <g
         id="g211">
        <use
           xlink:href="#bTkJKotyE"
           opacity="1"
           fill="#d1ec56"
           fill-opacity="1"
           id="use205" />
        <g
           id="g209">
          <use
             xlink:href="#bTkJKotyE"
             opacity="1"
             fill-opacity="0"
             stroke="#e8e930"
             stroke-width="1"
             stroke-opacity="1"
             id="use207" />
        </g>
      </g>
      <g
         id="g219">
        <use
           xlink:href="#a3uRycnTuR"
           opacity="1"
           fill="#d1ec56"
           fill-opacity="1"
           id="use213" />
        <g
           id="g217">
          <use
             xlink:href="#a3uRycnTuR"
             opacity="1"
             fill-opacity="0"
             stroke="#e8e930"
             stroke-width="1"
             stroke-opacity="1"
             id="use215" />
        </g>
      </g>
      <g
         id="g227">
        <use
           xlink:href="#bHknIyo1F"
           opacity="1"
           fill="#d1ec56"
           fill-opacity="1"
           id="use221" />
        <g
           id="g225">
          <use
             xlink:href="#bHknIyo1F"
             opacity="1"
             fill-opacity="0"
             stroke="#e8e930"
             stroke-width="1"
             stroke-opacity="1"
             id="use223" />
        </g>
      </g>
      <g
         id="g235">
        <use
           xlink:href="#d5xdaGJ539"
           opacity="1"
           fill="#d1ec56"
           fill-opacity="1"
           id="use229" />
        <g
           id="g233">
          <use
             xlink:href="#d5xdaGJ539"
             opacity="1"
             fill-opacity="0"
             stroke="#e8e930"
             stroke-width="1"
             stroke-opacity="1"
             id="use231" />
        </g>
      </g>
      <g
         id="g243">
        <use
           xlink:href="#gb8EEDJDM"
           opacity="1"
           fill="#d1ec56"
           fill-opacity="1"
           id="use237" />
        <g
           id="g241">
          <use
             xlink:href="#gb8EEDJDM"
             opacity="1"
             fill-opacity="0"
             stroke="#e8e930"
             stroke-width="1"
             stroke-opacity="1"
             id="use239" />
        </g>
      </g>
      <g
         id="g251">
        <use
           xlink:href="#c1PIYoJlWB"
           opacity="1"
           fill="#d1ec56"
           fill-opacity="1"
           id="use245" />
        <g
           id="g249">
          <use
             xlink:href="#c1PIYoJlWB"
             opacity="1"
             fill-opacity="0"
             stroke="#e8e930"
             stroke-width="1"
             stroke-opacity="1"
             id="use247" />
        </g>
      </g>
      <g
         id="g259">
        <use
           xlink:href="#b1d1tXIFdz"
           opacity="1"
           fill="#d1ec56"
           fill-opacity="1"
           id="use253" />
        <g
           id="g257">
          <use
             xlink:href="#b1d1tXIFdz"
             opacity="1"
             fill-opacity="0"
             stroke="#e8e930"
             stroke-width="1"
             stroke-opacity="1"
             id="use255" />
        </g>
      </g>
      <g
         id="g267">
        <use
           xlink:href="#bsdjxIrsO"
           opacity="1"
           fill="#d1ec56"
           fill-opacity="1"
           id="use261" />
        <g
           id="g265">
          <use
             xlink:href="#bsdjxIrsO"
             opacity="1"
             fill-opacity="0"
             stroke="#e8e930"
             stroke-width="1"
             stroke-opacity="1"
             id="use263" />
        </g>
      </g>
      <g
         id="g275">
        <use
           xlink:href="#bfXP4lw6a"
           opacity="1"
           fill="#d1ec56"
           fill-opacity="1"
           id="use269" />
        <g
           id="g273">
          <use
             xlink:href="#bfXP4lw6a"
             opacity="1"
             fill-opacity="0"
             stroke="#e8e930"
             stroke-width="1"
             stroke-opacity="1"
             id="use271" />
        </g>
      </g>
      <g
         id="g283">
        <use
           xlink:href="#b1pdcZBNxu"
           opacity="1"
           fill="#d1ec56"
           fill-opacity="1"
           id="use277" />
        <g
           id="g281">
          <use
             xlink:href="#b1pdcZBNxu"
             opacity="1"
             fill-opacity="0"
             stroke="#e8e930"
             stroke-width="1"
             stroke-opacity="1"
             id="use279" />
        </g>
      </g>
      <g
         id="g291">
        <use
           xlink:href="#bnh83lUJe"
           opacity="1"
           fill="#d1ec56"
           fill-opacity="1"
           id="use285" />
        <g
           id="g289">
          <use
             xlink:href="#bnh83lUJe"
             opacity="1"
             fill-opacity="0"
             stroke="#e8e930"
             stroke-width="1"
             stroke-opacity="1"
             id="use287" />
        </g>
      </g>
      <g
         id="g299">
        <use
           xlink:href="#e5FyKiJIOZ"
           opacity="1"
           fill="#d1ec56"
           fill-opacity="1"
           id="use293" />
        <g
           id="g297">
          <use
             xlink:href="#e5FyKiJIOZ"
             opacity="1"
             fill-opacity="0"
             stroke="#e8e930"
             stroke-width="1"
             stroke-opacity="1"
             id="use295" />
        </g>
      </g>
      <g
         id="g307">
        <use
           xlink:href="#a1Bt3Rtyj"
           opacity="1"
           fill="#d1ec56"
           fill-opacity="1"
           id="use301" />
        <g
           id="g305">
          <use
             xlink:href="#a1Bt3Rtyj"
             opacity="1"
             fill-opacity="0"
             stroke="#e8e930"
             stroke-width="1"
             stroke-opacity="1"
             id="use303" />
        </g>
      </g>
      <g
         id="g315">
        <use
           xlink:href="#a2mGufOzga"
           opacity="1"
           fill="#d1ec56"
           fill-opacity="1"
           id="use309" />
        <g
           id="g313">
          <use
             xlink:href="#a2mGufOzga"
             opacity="1"
             fill-opacity="0"
             stroke="#e8e930"
             stroke-width="1"
             stroke-opacity="1"
             id="use311" />
        </g>
      </g>
      <g
         id="g323">
        <use
           xlink:href="#al2OgS00v"
           opacity="1"
           fill="#d1ec56"
           fill-opacity="1"
           id="use317" />
        <g
           id="g321">
          <use
             xlink:href="#al2OgS00v"
             opacity="1"
             fill-opacity="0"
             stroke="#e8e930"
             stroke-width="1"
             stroke-opacity="1"
             id="use319" />
        </g>
      </g>
      <g
         id="g331">
        <use
           xlink:href="#c4EG4EVbfN"
           opacity="1"
           fill="#d1ec56"
           fill-opacity="1"
           id="use325" />
        <g
           id="g329">
          <use
             xlink:href="#c4EG4EVbfN"
             opacity="1"
             fill-opacity="0"
             stroke="#e8e930"
             stroke-width="1"
             stroke-opacity="1"
             id="use327" />
        </g>
      </g>
      <g
         id="g339">
        <use
           xlink:href="#bHLlH39ci"
           opacity="1"
           fill="#d1ec56"
           fill-opacity="1"
           id="use333" />
        <g
           id="g337">
          <use
             xlink:href="#bHLlH39ci"
             opacity="1"
             fill-opacity="0"
             stroke="#e8e930"
             stroke-width="1"
             stroke-opacity="1"
             id="use335" />
        </g>
      </g>
      <g
         id="g347">
        <use
           xlink:href="#i4JXHoQXMx"
           opacity="1"
           fill="#d1ec56"
           fill-opacity="1"
           id="use341" />
        <g
           id="g345">
          <use
             xlink:href="#i4JXHoQXMx"
             opacity="1"
             fill-opacity="0"
             stroke="#e8e930"
             stroke-width="1"
             stroke-opacity="1"
             id="use343" />
        </g>
      </g>
      <g
         id="g355">
        <use
           xlink:href="#a1tYrTqQ7e"
           opacity="1"
           fill="#d1ec56"
           fill-opacity="1"
           id="use349" />
        <g
           id="g353">
          <use
             xlink:href="#a1tYrTqQ7e"
             opacity="1"
             fill-opacity="0"
             stroke="#e8e930"
             stroke-width="1"
             stroke-opacity="1"
             id="use351" />
        </g>
      </g>
      <g
         id="g363">
        <use
           xlink:href="#e27erVnD6E"
           opacity="1"
           fill="#d1ec56"
           fill-opacity="1"
           id="use357" />
        <g
           id="g361">
          <use
             xlink:href="#e27erVnD6E"
             opacity="1"
             fill-opacity="0"
             stroke="#e8e930"
             stroke-width="1"
             stroke-opacity="1"
             id="use359" />
        </g>
      </g>
      <g
         id="g371">
        <use
           xlink:href="#c2HlIWeRG"
           opacity="1"
           fill="#d1ec56"
           fill-opacity="1"
           id="use365" />
        <g
           id="g369">
          <use
             xlink:href="#c2HlIWeRG"
             opacity="1"
             fill-opacity="0"
             stroke="#e8e930"
             stroke-width="1"
             stroke-opacity="1"
             id="use367" />
        </g>
      </g>
      <g
         id="g379">
        <use
           xlink:href="#a3hqsvH3FJ"
           opacity="1"
           fill="#d1ec56"
           fill-opacity="1"
           id="use373" />
        <g
           id="g377">
          <use
             xlink:href="#a3hqsvH3FJ"
             opacity="1"
             fill-opacity="0"
             stroke="#e8e930"
             stroke-width="1"
             stroke-opacity="1"
             id="use375" />
        </g>
      </g>
      <g
         id="g387">
        <use
           xlink:href="#b3iYXhMoqo"
           opacity="1"
           fill="#d1ec56"
           fill-opacity="1"
           id="use381" />
        <g
           id="g385">
          <use
             xlink:href="#b3iYXhMoqo"
             opacity="1"
             fill-opacity="0"
             stroke="#e8e930"
             stroke-width="1"
             stroke-opacity="1"
             id="use383" />
        </g>
      </g>
      <g
         id="g395">
        <use
           xlink:href="#d6eIUvss72"
           opacity="1"
           fill="#d1ec56"
           fill-opacity="1"
           id="use389" />
        <g
           id="g393">
          <use
             xlink:href="#d6eIUvss72"
             opacity="1"
             fill-opacity="0"
             stroke="#e8e930"
             stroke-width="1"
             stroke-opacity="1"
             id="use391" />
        </g>
      </g>
      <g
         id="g403">
        <use
           xlink:href="#bk8kRkrEf"
           opacity="1"
           fill="#d1ec56"
           fill-opacity="1"
           id="use397" />
        <g
           id="g401">
          <use
             xlink:href="#bk8kRkrEf"
             opacity="1"
             fill-opacity="0"
             stroke="#e8e930"
             stroke-width="1"
             stroke-opacity="1"
             id="use399" />
        </g>
      </g>
      <g
         id="g411">
        <use
           xlink:href="#a1QH3zQo9G"
           opacity="1"
           fill="#d1ec56"
           fill-opacity="1"
           id="use405" />
        <g
           id="g409">
          <use
             xlink:href="#a1QH3zQo9G"
             opacity="1"
             fill-opacity="0"
             stroke="#e8e930"
             stroke-width="1"
             stroke-opacity="1"
             id="use407" />
        </g>
      </g>
      <g
         id="g419">
        <use
           xlink:href="#eMS50hP5y"
           opacity="1"
           fill="#d1ec56"
           fill-opacity="1"
           id="use413" />
        <g
           id="g417">
          <use
             xlink:href="#eMS50hP5y"
             opacity="1"
             fill-opacity="0"
             stroke="#e8e930"
             stroke-width="1"
             stroke-opacity="1"
             id="use415" />
        </g>
      </g>
      <g
         id="g427">
        <use
           xlink:href="#i4mFm0xPJB"
           opacity="1"
           fill="#d1ec56"
           fill-opacity="1"
           id="use421" />
        <g
           id="g425">
          <use
             xlink:href="#i4mFm0xPJB"
             opacity="1"
             fill-opacity="0"
             stroke="#e8e930"
             stroke-width="1"
             stroke-opacity="1"
             id="use423" />
        </g>
      </g>
      <g
         id="g435">
        <use
           xlink:href="#a71OfMM0rK"
           opacity="1"
           fill="#d1ec56"
           fill-opacity="1"
           id="use429" />
        <g
           id="g433">
          <use
             xlink:href="#a71OfMM0rK"
             opacity="1"
             fill-opacity="0"
             stroke="#e8e930"
             stroke-width="1"
             stroke-opacity="1"
             id="use431" />
        </g>
      </g>
      <g
         id="g443">
        <use
           xlink:href="#e6dLrUzEu"
           opacity="1"
           fill="#d1ec56"
           fill-opacity="1"
           id="use437" />
        <g
           id="g441">
          <use
             xlink:href="#e6dLrUzEu"
             opacity="1"
             fill-opacity="0"
             stroke="#e8e930"
             stroke-width="1"
             stroke-opacity="1"
             id="use439" />
        </g>
      </g>
    </g>
  </g>
  <rect
     style="fill:#ff2a2a;stroke-width:0.864229"
     id="rect455"
     width="5.3084354"
     height="0.96399999"
     x="3.6144578"
     y="12.409481" />
  <rect
     style="fill:#00ffff"
     id="rect498"
     width="7.8313255"
     height="1.0843374"
     x="46.024097"
     y="12.289156" />
  <rect
     style="fill:#00ffff"
     id="rect498-0"
     width="7.8313255"
     height="1.0843374"
     x="46.204819"
     y="37.530125" />
  <rect
     style="fill:#00ffff"
     id="rect498-1"
     width="7.8313255"
     height="1.0843374"
     x="46.204815"
     y="24.999998" />
  <rect
     style="fill:#00ffff"
     id="rect498-0-0"
     width="7.8313255"
     height="1.0843374"
     x="46.084335"
     y="49.698795" />
  <rect
     style="fill:#ff2a2a;stroke-width:0.864229"
     id="rect455-03"
     width="5.3084354"
     height="0.96399999"
     x="9.9108725"
     y="-6.94314"
     transform="rotate(91.434414)" />
  <rect
     style="fill:#ff2a2a;stroke-width:0.864229"
     id="rect455-8"
     width="5.3084354"
     height="0.96399999"
     x="16.140963"
     y="12.337193" />
  <rect
     style="fill:#ff2a2a;stroke-width:0.864229"
     id="rect455-03-2"
     width="5.3084354"
     height="0.96399999"
     x="9.525034"
     y="-19.463911"
     transform="rotate(91.434414)" />
  <rect
     style="fill:#ff2a2a;stroke-width:0.864229"
     id="rect455-2"
     width="5.3084354"
     height="0.96399999"
     x="3.369879"
     y="24.505867" />
  <rect
     style="fill:#ff2a2a;stroke-width:0.864229"
     id="rect455-03-4"
     width="5.3084354"
     height="0.96399999"
     x="22.00959"
     y="-7.0014424"
     transform="rotate(91.434414)" />
  <rect
     style="fill:#ff2a2a;stroke-width:0.864229"
     id="rect455-7"
     width="5.3084354"
     height="0.96399999"
     x="16.261444"
     y="24.626347" />
  <rect
     style="fill:#ff2a2a;stroke-width:0.864229"
     id="rect455-03-9"
     width="5.3084354"
     height="0.96399999"
     x="21.807323"
     y="-19.891985"
     transform="rotate(91.434414)" />
  <rect
     style="fill:#ff2a2a;stroke-width:0.864229"
     id="rect455-84"
     width="5.3084354"
     height="0.96399999"
     x="3.4903603"
     y="37.156467" />
  <rect
     style="fill:#ff2a2a;stroke-width:0.864229"
     id="rect455-03-3"
     width="5.3084354"
     height="0.96399999"
     x="34.65321"
     y="-7.4385633"
     transform="rotate(91.434414)" />
  <rect
     style="fill:#ff2a2a;stroke-width:0.864229"
     id="rect455-6"
     width="5.3084354"
     height="0.96399999"
     x="16.140963"
     y="37.156471" />
  <rect
     style="fill:#ff2a2a;stroke-width:0.864229"
     id="rect455-03-41"
     width="5.3084354"
     height="0.96399999"
     x="34.336533"
     y="-20.085201"
     transform="rotate(91.434414)" />
  <path
     sodipodi:type="star"
     style="fill:#00ff00;fill-opacity:1"
     id="path1209"
     sodipodi:sides="5"
     sodipodi:cx="85.783134"
     sodipodi:cy="25.421686"
     sodipodi:r1="2.6451204"
     sodipodi:r2="1.3225601"
     sodipodi:arg1="1.0460006"
     sodipodi:arg2="1.6743191"
     inkscape:flatsided="false"
     inkscape:rounded="0"
     inkscape:randomized="0"
     d="m 87.108436,27.710843 -1.461972,-0.973677 -1.630906,0.652345 0.474248,-1.691301 -1.124395,-1.349498 1.755073,-0.0716 0.935992,-1.486381 0.610447,1.647047 1.702869,0.430864 -1.377796,1.089535 z"
     inkscape:transform-center-x="2.1198234"
     inkscape:transform-center-y="5.5774579"
     transform="rotate(-2.5050825,64.908764,-18.440415)" />
  <path
     sodipodi:type="star"
     style="fill:#00ff00;fill-opacity:1"
     id="path1209-8"
     sodipodi:sides="5"
     sodipodi:cx="85.783134"
     sodipodi:cy="25.421686"
     sodipodi:r1="2.6451204"
     sodipodi:r2="1.3225601"
     sodipodi:arg1="1.0460006"
     sodipodi:arg2="1.6743191"
     inkscape:flatsided="false"
     inkscape:rounded="0"
     inkscape:randomized="0"
     d="m 87.108436,27.710843 -1.461972,-0.973677 -1.630906,0.652345 0.474248,-1.691301 -1.124395,-1.349498 1.755073,-0.0716 0.935992,-1.486381 0.610447,1.647047 1.702869,0.430864 -1.377796,1.089535 z"
     inkscape:transform-center-x="2.1198234"
     inkscape:transform-center-y="5.5774579"
     transform="rotate(-2.5050825,629.95576,-2.3963076)" />
</svg>
